<svg xmlns="http://www.w3.org/2000/svg" width="19" height="14" viewBox="0 0 19 14">
    <path fill="#F4562F" d="M18.189 4.458c.137-.11.34-.007.34.165v7.19c0 .931-.755 1.687-1.687 1.687H2.217c-.931 0-1.687-.756-1.687-1.688V4.628c0-.176.2-.275.34-.166.788.612 1.832 1.389 5.418 3.994.742.541 1.994 1.68 3.242 1.674 1.255.01 2.531-1.154 3.245-1.674C16.36 5.85 17.4 5.07 18.189 4.458zM9.529 9c.816.014 1.99-1.027 2.581-1.455 4.666-3.386 5.02-3.681 6.096-4.525.204-.158.324-.404.324-.665v-.667C18.53.755 17.774 0 16.842 0H2.217C1.286 0 .53.756.53 1.688v.667c0 .26.12.503.323.665 1.076.84 1.431 1.139 6.096 4.525.591.428 1.765 1.47 2.58 1.455z"/>
</svg>
