<svg xmlns="http://www.w3.org/2000/svg" width="19" height="15" viewBox="0 0 19 15">
    <path fill="#F4562F" d="M16.68 3.542c.011.155.011.31.011.466 0 4.74-3.712 10.203-10.496 10.203-2.09 0-4.032-.589-5.665-1.61.297.033.582.044.89.044 1.725 0 3.313-.566 4.58-1.532-1.621-.033-2.98-1.066-3.449-2.487.229.034.457.056.697.056.331 0 .663-.045.97-.122-1.69-.333-2.957-1.777-2.957-3.52v-.044c.49.266 1.062.433 1.667.455-.993-.644-1.644-1.743-1.644-2.986 0-.666.182-1.277.502-1.81 1.816 2.176 4.546 3.597 7.607 3.752-.057-.266-.092-.544-.092-.821C9.301 1.61 10.946 0 12.991 0c1.062 0 2.021.433 2.695 1.132.834-.155 1.633-.455 2.341-.866-.274.833-.856 1.533-1.622 1.977.743-.078 1.462-.278 2.125-.555-.503.71-1.13 1.343-1.85 1.854z"/>
</svg>
