<svg xmlns="http://www.w3.org/2000/svg" xmlns:xlink="http://www.w3.org/1999/xlink" width="170" height="25" viewBox="0 0 170 25">
    <defs>
        <path id="622mk8kbma" d="M0 0L169.643 0 169.643 25 0 25z"/>
    </defs>
    <g fill="none" fill-rule="evenodd">
        <mask id="tf23vzy2wb" fill="#fff">
            <use xlink:href="#622mk8kbma"/>
        </mask>
        <path fill="#F4562F" d="M0 12.5C0 19.403 5.361 25 11.975 25v-3.75c-4.63 0-8.383-3.917-8.383-8.75s3.754-8.75 8.383-8.75V0C5.36 0 0 5.597 0 12.5M81.828 12.5c0 6.903 5.361 12.5 11.975 12.5v-3.75c-4.013 0-7.365-2.944-8.188-6.875h7.04v-3.75h-7.04c.823-3.931 4.175-6.875 8.188-6.875V0c-6.614 0-11.975 5.597-11.975 12.5M30.118 12.998v3.252h-6.35V6.875c0-1.726 1.422-3.125 3.175-3.125 1.754 0 3.175 1.4 3.175 3.125v6.123zM26.943 0c-3.858 0-6.985 3.078-6.985 6.875V25h3.81v-5h6.35v5h3.81V6.875C33.929 3.078 30.802 0 26.944 0zM68.855 0c-1.144 0-2.222.449-3.175 1.176v-.003L65.426 0H61.87v25h3.81V6.875c0-1.726 1.421-3.125 3.175-3.125 1.754 0 3.175 1.4 3.175 3.125V25h3.81V6.875C75.84 3.078 72.713 0 68.855 0M130.906 12.998v3.252h-6.35V6.875c0-1.726 1.422-3.125 3.175-3.125 1.754 0 3.175 1.4 3.175 3.125v6.123zM127.731 0c-3.858 0-6.985 3.078-6.985 6.875V25h3.81v-5h6.35v5h3.81V6.875c0-3.797-3.127-6.875-6.985-6.875zM169.643 3.75V0c-6.614 0-11.975 5.597-11.975 12.5S163.03 25 169.643 25v-3.75c-4.013 0-7.365-2.944-8.188-6.875h7.06v-3.75h-7.06c.823-3.931 4.175-6.875 8.188-6.875M145.444 0L141.702 0 141.702 25 151.681 25 151.681 21.25 145.444 21.25 145.444 0M107.274 14.478L103.6 0 99.79 0 106.606 25 107.942 25 114.758 0 110.948 0 107.274 14.478M44.62 15V3.75c3.07 0 5.56 2.518 5.56 5.625S47.69 15 44.62 15zm9.267-5.625C53.887 4.197 49.738 0 44.62 0h-3.706v25h3.706v-6.25c.177 0 .352-.006.527-.016 1.268 3.649 4.7 6.266 8.74 6.266v-3.75c-2.32 0-4.304-1.44-5.137-3.483 3.044-1.536 5.137-4.716 5.137-8.392z" mask="url(#tf23vzy2wb)"/>
    </g>
</svg>
